#!OML:ASF F:\VICON\USERDATA\INSTALL\rory3\rory3.ASF
:FULLY-SPECIFIED
:DEGREES
2225
root 2.95124 17.9211 4.56439 374.697 -52.1529 356.694
lowerback 6.55983 -4.96614 -5.17638
upperback 1.54252 -6.94026 6.50535
thorax -0.611365 -3.58246 10.2206
lowerneck -2.21727 -7.01567 -15.1291
upperneck 40.7849 -11.0138 1.55856
head 15.9436 -7.30563 1.62662
rclavicle 6.95746e-015 4.69132e-014
rhumerus -35.909 -11.9162 -62.1604
rradius 35.7056
rwrist 24.2527
rhand -17.4307 6.67056
rfingers 7.12502
rthumb 8.81969 -383.125
lclavicle 6.95746e-015 4.69132e-014
lhumerus -28.9266 0.0320186 85.717
lradius 41.6449
lwrist -7.47845
lhand -18.2374 25.8955
lfingers 7.12502
lthumb 8.04117 55.7225
rfemur -28.2844 9.49847 10.8489
rtibia 35.8244
rfoot -15.7452 -2.40777
rtoes -3.24647
lfemur -21.9982 4.35592 -19.0339
ltibia 26.8369
lfoot -12.054 2.55633
ltoes -10.991
2226
root 2.93583 17.9202 4.53693 374.538 -52.0439 356.89
lowerback 6.66035 -4.91663 -5.09633
upperback 1.59466 -6.87072 6.44037
thorax -0.64567 -3.54553 10.1092
lowerneck -2.23974 -6.97737 -15.1535
upperneck 40.8701 -11.0199 1.74118
head 16.01 -7.29102 1.70628
rclavicle -4.37326e-015 -2.70347e-014
rhumerus -36.0902 -12.2146 -62.1593
rradius 36.0036
rwrist 24.3097
rhand -17.4183 6.74494
rfingers 7.12502
rthumb 8.83168 -383.05
lclavicle -4.37326e-015 -2.70347e-014
lhumerus -28.9277 -0.757076 85.9566
lradius 42.0614
lwrist -8.22763
lhand -18.164 25.7912
lfingers 7.12502
lthumb 8.1121 55.6155
rfemur -28.3734 9.44455 10.3399
rtibia 35.5128
rfoot -15.5613 -2.52785
rtoes -3.51364
lfemur -22.0172 4.31576 -19.0544
ltibia 26.732
lfoot -12.0886 2.55252
ltoes -7.18118
2227
root 2.91826 17.9178 4.50649 374.471 -51.962 356.986
lowerback 6.74723 -4.86496 -5.02541
upperback 1.64456 -6.79938 6.42094
thorax -0.667741 -3.50947 10.0515
lowerneck -2.24864 -6.95658 -15.184
upperneck 40.9431 -11.0101 1.80936
head 16.0581 -7.28325 1.74094
rclavicle 7.41467e-014 -2.3059e-014
rhumerus -36.2196 -12.5074 -62.1414
rradius 36.2844
rwrist 24.3597
rhand -17.4475 6.84819
rfingers 7.12502
rthumb 8.80349 -382.948
lclavicle 7.41467e-014 -2.3059e-014
lhumerus -28.9657 -1.50745 86.2117
lradius 42.452
lwrist -9.18444
lhand -18.2877 25.4585
lfingers 7.12502
lthumb 7.99267 55.2874
rfemur -28.4576 9.45519 9.88824
rtibia 35.1536
rfoot -15.3679 -2.62181
rtoes -4.03819
lfemur -22.098 4.31937 -19.0066
ltibia 26.7549
lfoot -12.1322 2.55439
ltoes -6.42657
2228
root 2.90115 17.9233 4.47146 374.384 -51.8429 357.136
lowerback 6.8369 -4.85163 -5.09056
upperback 1.72565 -6.79103 6.45532
thorax -0.621734 -3.51184 10.1316
lowerneck -2.28662 -6.93825 -15.3089
upperneck 40.8795 -10.9606 1.88038
head 16.0449 -7.26464 1.80033
rclavicle 3.37934e-014 1.59028e-014
rhumerus -36.196 -12.6405 -62.1518
rradius 36.6272
rwrist 24.2749
rhand -17.3107 7.10702
rfingers 7.12502
rthumb 8.93552 -382.684
lclavicle 3.37934e-014 1.59028e-014
lhumerus -28.8737 -2.04613 86.4493
lradius 42.7991
lwrist -10.1273
lhand -18.5177 25.1146
lfingers 7.12502
lthumb 7.77066 54.9518
rfemur -28.5001 9.44473 9.39909
rtibia 34.6098
rfoot -15.0737 -2.78048
rtoes -4.3092
lfemur -22.3152 4.44014 -19.0056
ltibia 27.0299
lfoot -12.1448 2.40548
ltoes -9.35137
2229
root 2.88374 17.8694 4.43008 374.378 -51.6404 357.188
lowerback 6.92626 -4.81962 -5.03334
upperback 1.80338 -6.74886 6.49447
thorax -0.600421 -3.49523 10.1453
lowerneck -2.27579 -6.92609 -15.4277
upperneck 40.8253 -10.936 1.96853
head 16.029 -7.25413 1.86467
rclavicle -8.94531e-015 -1.03368e-014
rhumerus -36.2005 -12.5713 -62.2231
rradius 37.017
rwrist 23.8606
rhand -17.3643 7.02462
rfingers 7.12502
rthumb 8.88385 -382.768
lclavicle -8.94531e-015 -1.03368e-014
lhumerus -28.7742 -2.74608 86.7324
lradius 43.1641
lwrist -10.8372
lhand -18.7539 24.75
lfingers 7.12502
lthumb 7.5427 54.5955
rfemur -28.5199 9.54202 8.93305
rtibia 34.0333
rfoot -14.8958 -2.57434
rtoes -1.23065
lfemur -22.5585 4.05733 -18.7592
ltibia 27.3352
lfoot -12.0629 2.44047
ltoes -11.9338
2230
root 2.86508 17.8784 4.39489 374.514 -51.4192 357.022
lowerback 7.0309 -4.7903 -4.83776
upperback 1.88522 -6.70146 6.5617
thorax -0.597312 -3.47526 10.111
lowerneck -2.36278 -6.89499 -15.4614
upperneck 40.9266 -10.9006 2.04962
head 16.1084 -7.23305 1.90571
rclavicle -1.15295e-014 -2.62396e-014
rhumerus -36.1711 -12.6805 -62.2945
rradius 37.3111
rwrist 23.7684
rhand -17.5681 7.04682
rfingers 7.12502
rthumb 8.68716 -382.754
lclavicle -1.15295e-014 -2.62396e-014
lhumerus -28.7585 -3.39112 87.0294
lradius 43.5967
lwrist -11.5405
lhand -19.0206 24.5438
lfingers 7.12502
lthumb 7.28524 54.3984
rfemur -28.0693 9.57391 8.71535
rtibia 32.6536
rfoot -14.2201 -2.90014
rtoes -0.702647
lfemur -23.0816 4.20387 -18.5793
ltibia 28.1051
lfoot -12.2937 2.37395
ltoes -8.08831
2231
root 2.8452 17.8677 4.35667 374.603 -51.2886 356.837
lowerback 7.20329 -4.6852 -4.56815
upperback 1.99377 -6.54721 6.5236
thorax -0.647771 -3.39659 9.91985
lowerneck -2.39161 -6.94394 -15.2062
upperneck 40.9999 -10.9789 1.97707
head 16.133 -7.23331 1.81934
rclavicle -4.7112e-014 7.63333e-014
rhumerus -36.2657 -13.1017 -62.4437
rradius 37.6345
rwrist 23.8854
rhand -17.9075 7.11175
rfingers 7.12502
rthumb 8.3596 -382.703
lclavicle -4.7112e-014 7.63333e-014
lhumerus -28.7166 -4.30424 87.2444
lradius 44.0319
lwrist -12.2238
lhand -19.0449 24.4074
lfingers 7.12502
lthumb 7.2618 54.2628
rfemur -28.1208 9.55119 8.51693
rtibia 32.3365
rfoot -13.8373 -2.93262
rtoes -0.976037
lfemur -23.0849 3.88838 -18.1691
ltibia 28.1556
lfoot -12.2395 2.33351
ltoes -11.4634
2232
root 2.83241 18.0079 4.33289 374.622 -51.1686 356.916
lowerback 7.24288 -4.58405 -4.44299
upperback 2.05761 -6.40378 6.44864
thorax -0.655719 -3.32313 9.75997
lowerneck -2.29827 -7.00991 -14.9093
upperneck 40.9656 -11.0569 1.80279
head 16.0592 -7.23683 1.69126
rclavicle -4.81059e-014 -1.59028e-014
rhumerus -36.3167 -13.3559 -62.6697
rradius 37.9717
rwrist 23.9073
rhand -18.1679 6.98434
rfingers 7.12502
rthumb 8.1083 -382.84
lclavicle -4.81059e-014 -1.59028e-014
lhumerus -28.6804 -5.23576 87.4429
lradius 44.4417
lwrist -12.8113
lhand -18.7724 24.0338
lfingers 7.12502
lthumb 7.52481 53.8799
rfemur -27.9496 9.61999 8.09848
rtibia 31.5204
rfoot -13.3981 -3.04862
rtoes -0.856323
lfemur -23.7429 1.93009 -17.3164
ltibia 28.4345
lfoot -12.2847 2.51708
ltoes -3.92508
2233
root 2.80306 17.7976 4.26852 374.383 -50.9624 357.203
lowerback 7.38902 -4.54509 -4.59551
upperback 2.14149 -6.36809 6.47239
thorax -0.635443 -3.31081 9.88368
lowerneck -2.25057 -7.01193 -14.8853
upperneck 40.9675 -11.0089 1.66817
head 16.0319 -7.22419 1.64074
rclavicle 1.74931e-014 2.78299e-014
rhumerus -36.1521 -13.2314 -62.8638
rradius 38.2869
rwrist 23.8306
rhand -18.4014 6.87835
rfingers 7.12502
rthumb 7.88297 -382.955
lclavicle 1.74931e-014 2.78299e-014
lhumerus -28.6628 -5.71683 87.7212
lradius 44.8521
lwrist -13.4219
lhand -18.388 23.6405
lfingers 7.12502
lthumb 7.89582 53.473
rfemur -28.398 9.68535 7.42093
rtibia 31.4241
rfoot -13.0756 -3.24329
rtoes -0.812153
lfemur -23.0816 3.5449 -17.995
ltibia 28.3053
lfoot -12.5171 2.49636
ltoes -16.5752
2234
root 2.78098 17.841 4.2271 374.211 -50.6875 357.468
lowerback 7.51944 -4.53228 -4.71837
upperback 2.16914 -6.3632 6.51828
thorax -0.659865 -3.31024 10.0178
lowerneck -2.17589 -6.96157 -15.0291
upperneck 41.0173 -10.936 1.70725
head 16.0507 -7.21014 1.69597
rclavicle -4.75095e-014 1.66979e-014
rhumerus -36.0166 -12.8578 -63.0635
rradius 38.5994
rwrist 23.5461
rhand -18.7221 6.84942
rfingers 7.12502
rthumb 7.57343 -382.995
lclavicle -4.75095e-014 1.66979e-014
lhumerus -28.7183 -6.18515 88.0275
lradius 45.3304
lwrist -13.8097
lhand -17.9984 23.5419
lfingers 7.12502
lthumb 8.27186 53.36
rfemur -28.413 9.66778 6.92812
rtibia 31.0424
rfoot -12.6793 -3.5093
rtoes -1.68378
lfemur -23.4059 3.58155 -18.0644
ltibia 28.2641
lfoot -12.4329 2.50507
ltoes -13.8859
